<svg width="169" height="16" viewBox="0 0 169 16" fill="none" xmlns="http://www.w3.org/2000/svg">
<path fill-rule="evenodd" clip-rule="evenodd" d="M12.0118 12.8834C13.3036 11.7787 14.1726 10.2596 14.4708 8.58519C14.5291 8.21823 14.7127 7.88284 14.9902 7.6361C15.2665 7.4022 15.6163 7.27343 15.9782 7.27246C15.9823 9.58258 15.0811 11.8022 13.4683 13.4543C12.6795 14.2583 11.739 14.8973 10.7015 15.3343C9.66388 15.7713 8.54991 15.9975 7.42427 15.9997H0V14.5816H7.42427C9.10583 14.576 10.7311 13.9743 12.0118 12.8834Z" fill="white"/>
<path d="M7.7872 10.2399C9.14207 10.2399 10.2404 9.14158 10.2404 7.78671C10.2404 6.43184 9.14207 5.3335 7.7872 5.3335C6.43233 5.3335 5.33398 6.43184 5.33398 7.78671C5.33398 9.14158 6.43233 10.2399 7.7872 10.2399Z" fill="white"/>
<path fill-rule="evenodd" clip-rule="evenodd" d="M5.50584e-06 8.72727C0.362878 8.72654 0.713888 8.59779 0.991378 8.36364C1.2704 8.11915 1.45536 7.78473 1.5143 7.41818C1.81029 5.74383 2.67804 4.22447 3.96913 3.12C5.24826 2.02929 6.87192 1.42764 8.55196 1.42182H15.9782V0H8.55196C7.42663 0.00267508 6.31303 0.229054 5.27575 0.666008C4.23846 1.10296 3.29814 1.74179 2.5093 2.54545C0.898161 4.19845 -0.00256949 6.41746 5.50584e-06 8.72727Z" fill="white"/>
<path d="M25.302 13V2.892L34.514 9.528L43.712 2.892V13H41.5V7.008L34.514 12.048L27.528 6.994V13H25.302ZM50.9917 13C48.929 13 47.403 12.594 46.4137 11.782C45.4337 10.9607 44.9437 9.74733 44.9437 8.142V8.03C44.9437 4.754 46.9597 3.116 50.9917 3.116H55.8777C59.9097 3.116 61.9257 4.754 61.9257 8.03V8.142C61.9257 9.74733 61.431 10.9607 60.4417 11.782C59.4617 12.594 57.9403 13 55.8777 13H50.9917ZM50.9357 11.04H55.9477C57.2637 11.04 58.2203 10.802 58.8177 10.326C59.415 9.85 59.7137 9.11733 59.7137 8.128V8.016C59.7137 7.008 59.415 6.266 58.8177 5.79C58.2297 5.314 57.273 5.076 55.9477 5.076H50.9357C49.6103 5.076 48.649 5.314 48.0517 5.79C47.4637 6.266 47.1697 7.008 47.1697 8.016V8.128C47.1697 9.12667 47.4637 9.864 48.0517 10.34C48.649 10.8067 49.6103 11.04 50.9357 11.04ZM63.1578 13V3.116H73.4198C77.4518 3.116 79.4678 4.754 79.4678 8.03V8.142C79.4678 9.74733 78.9731 10.9607 77.9838 11.782C77.0038 12.594 75.4824 13 73.4198 13H63.1578ZM65.3838 11.04H73.4898C74.8058 11.04 75.7624 10.802 76.3598 10.326C76.9571 9.85 77.2558 9.11733 77.2558 8.128V8.016C77.2558 7.008 76.9571 6.266 76.3598 5.79C75.7718 5.314 74.8151 5.076 73.4898 5.076H65.3838V11.04ZM87.0608 13C84.7555 13 83.0755 12.51 82.0208 11.53C80.9755 10.55 80.4528 8.97267 80.4528 6.798V3.116H82.6788V6.784C82.6788 8.34267 83.0008 9.444 83.6448 10.088C84.2981 10.7227 85.4181 11.04 87.0048 11.04H89.8468C91.4521 11.04 92.5955 10.718 93.2768 10.074C93.9675 9.42067 94.3128 8.324 94.3128 6.784V3.116H96.5248V6.798C96.5248 8.96333 95.9788 10.5407 94.8868 11.53C93.8041 12.51 92.1008 13 89.7768 13H87.0608ZM97.9647 13V3.116H100.191V11.04H112.427V13H97.9647ZM113.516 13V3.116H127.726V5.076H115.742V7.078H127.726V8.968H115.742V11.04H127.726V13H113.516ZM136.282 9.206C135.871 9.206 135.544 9.094 135.302 8.87C135.068 8.646 134.952 8.37067 134.952 8.044C134.952 7.708 135.068 7.43267 135.302 7.218C135.544 6.994 135.871 6.882 136.282 6.882C136.683 6.882 137 6.994 137.234 7.218C137.476 7.43267 137.598 7.708 137.598 8.044C137.598 8.37067 137.476 8.646 137.234 8.87C137 9.094 136.683 9.206 136.282 9.206ZM144.499 13V10.438C144.499 9.262 144.774 8.41267 145.325 7.89C145.876 7.358 146.809 7.092 148.125 7.092H155.769C156.338 7.092 156.744 7.01733 156.987 6.868C157.239 6.70933 157.365 6.434 157.365 6.042C157.365 5.68733 157.239 5.44 156.987 5.3C156.735 5.15067 156.329 5.076 155.769 5.076H144.877V3.116H156.343C157.482 3.116 158.317 3.37267 158.849 3.886C159.381 4.39933 159.647 5.104 159.647 6C159.647 7.97867 158.546 8.968 156.343 8.968H148.503C147.803 8.968 147.341 9.07533 147.117 9.29C146.893 9.49533 146.781 9.92933 146.781 10.592V11.04H159.521V13H144.499ZM165.022 13V5.286L160.416 6.14V4.18L167.234 2.892V13H165.022Z" fill="white"/>
</svg>
